# xmcd CD database file
#
# Track frame offsets:
#	150
#	25466
#	26533
#	52394
#	80747
#	106095
#	128578
#	129030
#	152826
#	160939
#	170272
#	195725
#	207431
#	210017
#	232604
#	255885
#	280819
#	298289
#	318944
#	329758
#
# Disc length: 4723 seconds
#
# Revision: 0
# Processed by: cddbd v1.5.2PL0 Copyright (c) Steve Scherf et al.
# Submitted via: CDex 1.51
#
DISCID=12127114
DTITLE=Marcus Miller - Tales
DYEAR=1995
DGENRE=Jazz
TTITLE0=The Blues
TTITLE1=Tales (Intro)
TTITLE2=Tales
TTITLE3=Eric
TTITLE4=True Geminis
TTITLE5=Rush Over
TTITLE6=Running Through My Dream (Interlude)
TTITLE7=Ethiopia
TTITLE8=Strange Fruit (Intro)
TTITLE9=Strange Fruit
TTITLE10=Visions
TTITLE11=Tales (Reprise)
TTITLE12=Forevermore (Intro)
TTITLE13=Forevermore
TTITLE14=Infatuation
TTITLE15=Come Together
TTITLE16=Unknown Bonus Track 1
TTITLE17=Unknown Bonus Track 2
TTITLE18=Unknown Bonus Track 3
TTITLE19=Unknown Bonus Track 4
EXTD=YEAR: 1995
EXTT0=
EXTT1=
EXTT2=
EXTT3=
EXTT4=
EXTT5=
EXTT6=
EXTT7=
EXTT8=
EXTT9=
EXTT10=
EXTT11=
EXTT12=
EXTT13=
EXTT14=
EXTT15=
EXTT16=
EXTT17=
EXTT18=
EXTT19=
PLAYORDER=
